{
	"asset":{
		"generator":"Khronos glTF Blender I/O v4.0.44",
		"version":"2.0"
	},
	"scene":0,
	"scenes":[
		{
			"extras":{
				"ypui":{
					"expand_channels":0,
					"expand_mask_channels":0,
					"show_channels":1,
					"show_layers":1,
					"show_materials":0,
					"show_object":0,
					"show_stats":0,
					"show_support":0,
					"tree_name":"",
					"show_bake_targets":0
				},
				"yp":{
					"last_object":"Plane",
					"last_mode":"TEXTURE_PAINT",
					"edit_image_editor_area_index":-1
				},
				"bake_texture_properties":{}
			},
			"name":"Scene",
			"nodes":[
				0,
				1,
				2,
				3,
				4,
				5,
				6,
				7,
				8
			]
		}
	],
	"nodes":[
		{
			"mesh":0,
			"name":"wall_col"
		},
		{
			"mesh":1,
			"name":"floor_col",
			"translation":[
				0,
				0,
				-2
			]
		},
		{
			"mesh":2,
			"name":"corner_col",
			"translation":[
				0,
				0,
				-4
			]
		},
		{
			"mesh":3,
			"name":"step_col",
			"translation":[
				0,
				0,
				2
			]
		},
		{
			"mesh":4,
			"name":"wall_quarter_col",
			"translation":[
				2,
				0,
				0
			]
		},
		{
			"mesh":5,
			"name":"wall_half_col",
			"translation":[
				4,
				0,
				0
			]
		},
		{
			"mesh":6,
			"name":"corner_quarter_col",
			"translation":[
				2,
				0,
				-4
			]
		},
		{
			"mesh":7,
			"name":"corner_half_col",
			"translation":[
				4,
				0,
				-4
			]
		},
		{
			"mesh":8,
			"name":"pit_col",
			"translation":[
				2,
				0,
				2
			]
		}
	],
	"materials":[
		{
			"doubleSided":true,
			"extras":{
				"yp":{
					"active_ypaint_node":""
				}
			},
			"name":"Material.001",
			"pbrMetallicRoughness":{
				"baseColorTexture":{
					"index":0
				},
				"metallicFactor":0,
				"roughnessFactor":0.5
			}
		}
	],
	"meshes":[
		{
			"name":"Plane",
			"primitives":[
				{
					"attributes":{
						"POSITION":0,
						"NORMAL":1,
						"TEXCOORD_0":2,
						"TANGENT":3
					},
					"indices":4,
					"material":0
				}
			]
		},
		{
			"name":"Plane.001",
			"primitives":[
				{
					"attributes":{
						"POSITION":5,
						"NORMAL":6,
						"TEXCOORD_0":7,
						"TANGENT":8
					},
					"indices":9,
					"material":0
				}
			]
		},
		{
			"name":"Plane.002",
			"primitives":[
				{
					"attributes":{
						"POSITION":10,
						"NORMAL":11,
						"TEXCOORD_0":12,
						"TANGENT":13
					},
					"indices":14,
					"material":0
				}
			]
		},
		{
			"name":"Plane.003",
			"primitives":[
				{
					"attributes":{
						"POSITION":15,
						"NORMAL":16,
						"TEXCOORD_0":17,
						"TANGENT":18
					},
					"indices":19,
					"material":0
				}
			]
		},
		{
			"name":"Plane.004",
			"primitives":[
				{
					"attributes":{
						"POSITION":20,
						"NORMAL":21,
						"TEXCOORD_0":22,
						"TANGENT":23
					},
					"indices":24,
					"material":0
				}
			]
		},
		{
			"name":"Plane.005",
			"primitives":[
				{
					"attributes":{
						"POSITION":25,
						"NORMAL":26,
						"TEXCOORD_0":27,
						"TANGENT":28
					},
					"indices":24,
					"material":0
				}
			]
		},
		{
			"name":"Plane.006",
			"primitives":[
				{
					"attributes":{
						"POSITION":29,
						"NORMAL":30,
						"TEXCOORD_0":31,
						"TANGENT":32
					},
					"indices":33,
					"material":0
				}
			]
		},
		{
			"name":"Plane.007",
			"primitives":[
				{
					"attributes":{
						"POSITION":34,
						"NORMAL":35,
						"TEXCOORD_0":36,
						"TANGENT":37
					},
					"indices":38,
					"material":0
				}
			]
		},
		{
			"name":"Plane.008",
			"primitives":[
				{
					"attributes":{
						"POSITION":39,
						"NORMAL":40,
						"TEXCOORD_0":41,
						"TANGENT":42
					},
					"indices":43,
					"material":0
				}
			]
		}
	],
	"textures":[
		{
			"sampler":0,
			"source":0
		}
	],
	"images":[
		{
			"mimeType":"image/png",
			"name":"lab",
			"uri":"../../models/textures/lab.png"
		}
	],
	"accessors":[
		{
			"bufferView":0,
			"componentType":5126,
			"count":24,
			"max":[
				0.5,
				2,
				0.5
			],
			"min":[
				-0.5,
				0,
				-0.5
			],
			"type":"VEC3"
		},
		{
			"bufferView":1,
			"componentType":5126,
			"count":24,
			"type":"VEC3"
		},
		{
			"bufferView":2,
			"componentType":5126,
			"count":24,
			"type":"VEC2"
		},
		{
			"bufferView":3,
			"componentType":5126,
			"count":24,
			"type":"VEC4"
		},
		{
			"bufferView":4,
			"componentType":5123,
			"count":36,
			"type":"SCALAR"
		},
		{
			"bufferView":5,
			"componentType":5126,
			"count":4,
			"max":[
				0.5,
				0,
				0.5
			],
			"min":[
				-0.5,
				0,
				-0.5
			],
			"type":"VEC3"
		},
		{
			"bufferView":6,
			"componentType":5126,
			"count":4,
			"type":"VEC3"
		},
		{
			"bufferView":7,
			"componentType":5126,
			"count":4,
			"type":"VEC2"
		},
		{
			"bufferView":8,
			"componentType":5126,
			"count":4,
			"type":"VEC4"
		},
		{
			"bufferView":9,
			"componentType":5123,
			"count":6,
			"type":"SCALAR"
		},
		{
			"bufferView":10,
			"componentType":5126,
			"count":42,
			"max":[
				0.5,
				2,
				0.5
			],
			"min":[
				-0.5,
				0,
				-0.5
			],
			"type":"VEC3"
		},
		{
			"bufferView":11,
			"componentType":5126,
			"count":42,
			"type":"VEC3"
		},
		{
			"bufferView":12,
			"componentType":5126,
			"count":42,
			"type":"VEC2"
		},
		{
			"bufferView":13,
			"componentType":5126,
			"count":42,
			"type":"VEC4"
		},
		{
			"bufferView":14,
			"componentType":5123,
			"count":66,
			"type":"SCALAR"
		},
		{
			"bufferView":15,
			"componentType":5126,
			"count":24,
			"max":[
				0.5,
				0.5,
				0.5
			],
			"min":[
				-0.5,
				0,
				-0.5
			],
			"type":"VEC3"
		},
		{
			"bufferView":16,
			"componentType":5126,
			"count":24,
			"type":"VEC3"
		},
		{
			"bufferView":17,
			"componentType":5126,
			"count":24,
			"type":"VEC2"
		},
		{
			"bufferView":18,
			"componentType":5126,
			"count":24,
			"type":"VEC4"
		},
		{
			"bufferView":19,
			"componentType":5123,
			"count":36,
			"type":"SCALAR"
		},
		{
			"bufferView":20,
			"componentType":5126,
			"count":24,
			"max":[
				0.5,
				0.5,
				0.5
			],
			"min":[
				-0.5,
				0,
				-0.5
			],
			"type":"VEC3"
		},
		{
			"bufferView":21,
			"componentType":5126,
			"count":24,
			"type":"VEC3"
		},
		{
			"bufferView":22,
			"componentType":5126,
			"count":24,
			"type":"VEC2"
		},
		{
			"bufferView":23,
			"componentType":5126,
			"count":24,
			"type":"VEC4"
		},
		{
			"bufferView":24,
			"componentType":5123,
			"count":36,
			"type":"SCALAR"
		},
		{
			"bufferView":25,
			"componentType":5126,
			"count":24,
			"max":[
				0.5,
				1,
				0.5
			],
			"min":[
				-0.5,
				0,
				-0.5
			],
			"type":"VEC3"
		},
		{
			"bufferView":26,
			"componentType":5126,
			"count":24,
			"type":"VEC3"
		},
		{
			"bufferView":27,
			"componentType":5126,
			"count":24,
			"type":"VEC2"
		},
		{
			"bufferView":28,
			"componentType":5126,
			"count":24,
			"type":"VEC4"
		},
		{
			"bufferView":29,
			"componentType":5126,
			"count":42,
			"max":[
				0.5,
				0.5,
				0.5
			],
			"min":[
				-0.5,
				0,
				-0.5
			],
			"type":"VEC3"
		},
		{
			"bufferView":30,
			"componentType":5126,
			"count":42,
			"type":"VEC3"
		},
		{
			"bufferView":31,
			"componentType":5126,
			"count":42,
			"type":"VEC2"
		},
		{
			"bufferView":32,
			"componentType":5126,
			"count":42,
			"type":"VEC4"
		},
		{
			"bufferView":33,
			"componentType":5123,
			"count":66,
			"type":"SCALAR"
		},
		{
			"bufferView":34,
			"componentType":5126,
			"count":42,
			"max":[
				0.5,
				1,
				0.5
			],
			"min":[
				-0.5,
				0,
				-0.5
			],
			"type":"VEC3"
		},
		{
			"bufferView":35,
			"componentType":5126,
			"count":42,
			"type":"VEC3"
		},
		{
			"bufferView":36,
			"componentType":5126,
			"count":42,
			"type":"VEC2"
		},
		{
			"bufferView":37,
			"componentType":5126,
			"count":42,
			"type":"VEC4"
		},
		{
			"bufferView":38,
			"componentType":5123,
			"count":66,
			"type":"SCALAR"
		},
		{
			"bufferView":39,
			"componentType":5126,
			"count":28,
			"max":[
				0.5,
				0,
				0.5
			],
			"min":[
				-0.5,
				-0.5,
				-0.5
			],
			"type":"VEC3"
		},
		{
			"bufferView":40,
			"componentType":5126,
			"count":28,
			"type":"VEC3"
		},
		{
			"bufferView":41,
			"componentType":5126,
			"count":28,
			"type":"VEC2"
		},
		{
			"bufferView":42,
			"componentType":5126,
			"count":28,
			"type":"VEC4"
		},
		{
			"bufferView":43,
			"componentType":5123,
			"count":54,
			"type":"SCALAR"
		}
	],
	"bufferViews":[
		{
			"buffer":0,
			"byteLength":288,
			"byteOffset":0,
			"target":34962
		},
		{
			"buffer":0,
			"byteLength":288,
			"byteOffset":288,
			"target":34962
		},
		{
			"buffer":0,
			"byteLength":192,
			"byteOffset":576,
			"target":34962
		},
		{
			"buffer":0,
			"byteLength":384,
			"byteOffset":768,
			"target":34962
		},
		{
			"buffer":0,
			"byteLength":72,
			"byteOffset":1152,
			"target":34963
		},
		{
			"buffer":0,
			"byteLength":48,
			"byteOffset":1224,
			"target":34962
		},
		{
			"buffer":0,
			"byteLength":48,
			"byteOffset":1272,
			"target":34962
		},
		{
			"buffer":0,
			"byteLength":32,
			"byteOffset":1320,
			"target":34962
		},
		{
			"buffer":0,
			"byteLength":64,
			"byteOffset":1352,
			"target":34962
		},
		{
			"buffer":0,
			"byteLength":12,
			"byteOffset":1416,
			"target":34963
		},
		{
			"buffer":0,
			"byteLength":504,
			"byteOffset":1428,
			"target":34962
		},
		{
			"buffer":0,
			"byteLength":504,
			"byteOffset":1932,
			"target":34962
		},
		{
			"buffer":0,
			"byteLength":336,
			"byteOffset":2436,
			"target":34962
		},
		{
			"buffer":0,
			"byteLength":672,
			"byteOffset":2772,
			"target":34962
		},
		{
			"buffer":0,
			"byteLength":132,
			"byteOffset":3444,
			"target":34963
		},
		{
			"buffer":0,
			"byteLength":288,
			"byteOffset":3576,
			"target":34962
		},
		{
			"buffer":0,
			"byteLength":288,
			"byteOffset":3864,
			"target":34962
		},
		{
			"buffer":0,
			"byteLength":192,
			"byteOffset":4152,
			"target":34962
		},
		{
			"buffer":0,
			"byteLength":384,
			"byteOffset":4344,
			"target":34962
		},
		{
			"buffer":0,
			"byteLength":72,
			"byteOffset":4728,
			"target":34963
		},
		{
			"buffer":0,
			"byteLength":288,
			"byteOffset":4800,
			"target":34962
		},
		{
			"buffer":0,
			"byteLength":288,
			"byteOffset":5088,
			"target":34962
		},
		{
			"buffer":0,
			"byteLength":192,
			"byteOffset":5376,
			"target":34962
		},
		{
			"buffer":0,
			"byteLength":384,
			"byteOffset":5568,
			"target":34962
		},
		{
			"buffer":0,
			"byteLength":72,
			"byteOffset":5952,
			"target":34963
		},
		{
			"buffer":0,
			"byteLength":288,
			"byteOffset":6024,
			"target":34962
		},
		{
			"buffer":0,
			"byteLength":288,
			"byteOffset":6312,
			"target":34962
		},
		{
			"buffer":0,
			"byteLength":192,
			"byteOffset":6600,
			"target":34962
		},
		{
			"buffer":0,
			"byteLength":384,
			"byteOffset":6792,
			"target":34962
		},
		{
			"buffer":0,
			"byteLength":504,
			"byteOffset":7176,
			"target":34962
		},
		{
			"buffer":0,
			"byteLength":504,
			"byteOffset":7680,
			"target":34962
		},
		{
			"buffer":0,
			"byteLength":336,
			"byteOffset":8184,
			"target":34962
		},
		{
			"buffer":0,
			"byteLength":672,
			"byteOffset":8520,
			"target":34962
		},
		{
			"buffer":0,
			"byteLength":132,
			"byteOffset":9192,
			"target":34963
		},
		{
			"buffer":0,
			"byteLength":504,
			"byteOffset":9324,
			"target":34962
		},
		{
			"buffer":0,
			"byteLength":504,
			"byteOffset":9828,
			"target":34962
		},
		{
			"buffer":0,
			"byteLength":336,
			"byteOffset":10332,
			"target":34962
		},
		{
			"buffer":0,
			"byteLength":672,
			"byteOffset":10668,
			"target":34962
		},
		{
			"buffer":0,
			"byteLength":132,
			"byteOffset":11340,
			"target":34963
		},
		{
			"buffer":0,
			"byteLength":336,
			"byteOffset":11472,
			"target":34962
		},
		{
			"buffer":0,
			"byteLength":336,
			"byteOffset":11808,
			"target":34962
		},
		{
			"buffer":0,
			"byteLength":224,
			"byteOffset":12144,
			"target":34962
		},
		{
			"buffer":0,
			"byteLength":448,
			"byteOffset":12368,
			"target":34962
		},
		{
			"buffer":0,
			"byteLength":108,
			"byteOffset":12816,
			"target":34963
		}
	],
	"samplers":[
		{
			"magFilter":9728,
			"minFilter":9984
		}
	],
	"buffers":[
		{
			"byteLength":12924,
			"uri":"gridmap-e50722412d261505862b4e83f98bcb27.bin"
		}
	]
}
